<svg xmlns="http://www.w3.org/2000/svg" width="1440" height="900"><path d="M975,590L1212,517L957,417Z" fill="#7e4ccd" stroke="#7e4ccd" stroke-width="1.51"/><path d="M975,590L1198,692L1212,517Z" fill="#823bca" stroke="#823bca" stroke-width="1.51"/><path d="M1212,517L1288,186L957,417Z" fill="#7c58d1" stroke="#7c58d1" stroke-width="1.51"/><path d="M1198,692L1348,466L1212,517Z" fill="#8240cd" stroke="#8240cd" stroke-width="1.51"/><path d="M957,417L604,361L975,590Z" fill="#7763d4" stroke="#7763d4" stroke-width="1.51"/><path d="M885,101L818,305L957,417Z" fill="#7073d8" stroke="#7073d8" stroke-width="1.51"/><path d="M1348,466L1288,186L1212,517Z" fill="#7e55d2" stroke="#7e55d2" stroke-width="1.51"/><path d="M975,590L1033,903L1198,692Z" fill="#8429c5" stroke="#8429c5" stroke-width="1.51"/><path d="M713,876L1033,903L975,590Z" fill="#823ccb" stroke="#823ccb" stroke-width="1.51"/><path d="M1033,903L1182,904L1198,692Z" fill="#8622c7" stroke="#8622c7" stroke-width="1.51"/><path d="M1198,692L1521,769L1348,466Z" fill="#8533cc" stroke="#8533cc" stroke-width="1.51"/><path d="M1288,186L885,101L957,417Z" fill="#746bd6" stroke="#746bd6" stroke-width="1.51"/><path d="M818,305L604,361L957,417Z" fill="#7071d8" stroke="#7071d8" stroke-width="1.51"/><path d="M790,-36L604,361L818,305Z" fill="#6585de" stroke="#6585de" stroke-width="1.51"/><path d="M604,361L602,703L975,590Z" fill="#7763d3" stroke="#7763d3" stroke-width="1.51"/><path d="M1182,904L1451,852L1198,692Z" fill="#8721c9" stroke="#8721c9" stroke-width="1.51"/><path d="M1348,466L1575,213L1288,186Z" fill="#7b61d7" stroke="#7b61d7" stroke-width="1.51"/><path d="M1451,852L1521,769L1198,692Z" fill="#8720c9" stroke="#8720c9" stroke-width="1.51"/><path d="M602,703L713,876L975,590Z" fill="#7e4cce" stroke="#7e4cce" stroke-width="1.51"/><path d="M1521,769L1617,538L1348,466Z" fill="#853acf" stroke="#853acf" stroke-width="1.51"/><path d="M1288,186L1146,-58L885,101Z" fill="#8174d9" stroke="#8174d9" stroke-width="1.51"/><path d="M1553,-36L1146,-58L1288,186Z" fill="#8b77dd" stroke="#8b77dd" stroke-width="1.51"/><path d="M1617,538L1575,213L1348,466Z" fill="#8153d5" stroke="#8153d5" stroke-width="1.51"/><path d="M885,101L790,-36L818,305Z" fill="#6e85de" stroke="#6e85de" stroke-width="1.51"/><path d="M847,-109L790,-36L885,101Z" fill="#868ee1" stroke="#868ee1" stroke-width="1.51"/><path d="M602,703L487,1039L713,876Z" fill="#7c5ad3" stroke="#7c5ad3" stroke-width="1.51"/><path d="M604,361L474,560L602,703Z" fill="#7172d8" stroke="#7172d8" stroke-width="1.51"/><path d="M409,597L474,560L328,317Z" fill="#6683dd" stroke="#6683dd" stroke-width="1.51"/><path d="M713,876L876,1081L1033,903Z" fill="#843ece" stroke="#843ece" stroke-width="1.51"/><path d="M1033,903L1254,1222L1182,904Z" fill="#8820ca" stroke="#8820ca" stroke-width="1.51"/><path d="M1699,1270L1670,869L1451,852Z" fill="#8d19d0" stroke="#8d19d0" stroke-width="1.51"/><path d="M1146,-58L847,-109L885,101Z" fill="#8c85de" stroke="#8c85de" stroke-width="1.51"/><path d="M474,560L409,597L602,703Z" fill="#726ed7" stroke="#726ed7" stroke-width="1.51"/><path d="M713,876L741,1241L876,1081Z" fill="#8348d2" stroke="#8348d2" stroke-width="1.51"/><path d="M328,317L474,560L604,361Z" fill="#6485de" stroke="#6485de" stroke-width="1.51"/><path d="M1521,769L1716,770L1617,538Z" fill="#8928cd" stroke="#8928cd" stroke-width="1.51"/><path d="M1617,538L1786,146L1575,213Z" fill="#7f5fda" stroke="#7f5fda" stroke-width="1.51"/><path d="M1670,869L1716,770L1521,769Z" fill="#8a1ccd" stroke="#8a1ccd" stroke-width="1.51"/><path d="M1670,869L1521,769L1451,852Z" fill="#891dcc" stroke="#891dcc" stroke-width="1.51"/><path d="M1254,1222L1451,852L1182,904Z" fill="#891ecc" stroke="#891ecc" stroke-width="1.51"/><path d="M1575,213L1553,-36L1288,186Z" fill="#7e71dd" stroke="#7e71dd" stroke-width="1.51"/><path d="M1146,-58L1070,-305L847,-109Z" fill="#a28adf" stroke="#a28adf" stroke-width="1.51"/><path d="M1786,146L1553,-36L1575,213Z" fill="#8272df" stroke="#8272df" stroke-width="1.51"/><path d="M1553,-36L1180,-219L1146,-58Z" fill="#9f80df" stroke="#9f80df" stroke-width="1.51"/><path d="M876,1081L1254,1222L1033,903Z" fill="#8825cb" stroke="#8825cb" stroke-width="1.51"/><path d="M790,-36L433,94L604,361Z" fill="#5d94e3" stroke="#5d94e3" stroke-width="1.51"/><path d="M422,-28L433,94L790,-36Z" fill="#73a2e7" stroke="#73a2e7" stroke-width="1.51"/><path d="M1716,770L1827,579L1617,538Z" fill="#8833d1" stroke="#8833d1" stroke-width="1.51"/><path d="M2000,496L1827,579L1988,1031Z" fill="#8b24cf" stroke="#8b24cf" stroke-width="1.51"/><path d="M433,94L328,317L604,361Z" fill="#5695e2" stroke="#5695e2" stroke-width="1.51"/><path d="M1827,579L1786,146L1617,538Z" fill="#8350d7" stroke="#8350d7" stroke-width="1.51"/><path d="M1180,-219L1070,-305L1146,-58Z" fill="#aa86df" stroke="#aa86df" stroke-width="1.51"/><path d="M545,-202L422,-28L790,-36Z" fill="#86a7e8" stroke="#86a7e8" stroke-width="1.51"/><path d="M1537,-396L1070,-305L1180,-219Z" fill="#bc8fe4" stroke="#bc8fe4" stroke-width="1.51"/><path d="M876,1081L1088,1347L1254,1222Z" fill="#8b20cd" stroke="#8b20cd" stroke-width="1.51"/><path d="M227,927L487,1039L602,703Z" fill="#7867d7" stroke="#7867d7" stroke-width="1.51"/><path d="M227,927L602,703L409,597Z" fill="#7469d5" stroke="#7469d5" stroke-width="1.51"/><path d="M487,1039L741,1241L713,876Z" fill="#8055d5" stroke="#8055d5" stroke-width="1.51"/><path d="M545,-202L790,-36L847,-109Z" fill="#929ee5" stroke="#929ee5" stroke-width="1.51"/><path d="M433,94L69,116L328,317Z" fill="#50a8e9" stroke="#50a8e9" stroke-width="1.51"/><path d="M741,1241L1088,1347L876,1081Z" fill="#8839d2" stroke="#8839d2" stroke-width="1.51"/><path d="M1088,1347L1384,1302L1254,1222Z" fill="#8d19d0" stroke="#8d19d0" stroke-width="1.51"/><path d="M1254,1222L1384,1302L1451,852Z" fill="#8c1bcf" stroke="#8c1bcf" stroke-width="1.51"/><path d="M719,-404L545,-202L847,-109Z" fill="#a3a9e9" stroke="#a3a9e9" stroke-width="1.51"/><path d="M1553,-36L1597,-330L1180,-219Z" fill="#ae86e4" stroke="#ae86e4" stroke-width="1.51"/><path d="M1786,146L1798,-13L1553,-36Z" fill="#9076e2" stroke="#9076e2" stroke-width="1.51"/><path d="M2040,305L1798,-13L1786,146Z" fill="#7e6fe1" stroke="#7e6fe1" stroke-width="1.51"/><path d="M1827,579L2000,496L1786,146Z" fill="#8452d9" stroke="#8452d9" stroke-width="1.51"/><path d="M1988,1031L1827,579L1716,770Z" fill="#8c1acf" stroke="#8c1acf" stroke-width="1.51"/><path d="M1988,1031L1716,770L1670,869Z" fill="#8d19d0" stroke="#8d19d0" stroke-width="1.51"/><path d="M69,116L145,548L328,317Z" fill="#70a0e6" stroke="#70a0e6" stroke-width="1.51"/><path d="M328,317L145,548L409,597Z" fill="#6c8adf" stroke="#6c8adf" stroke-width="1.51"/><path d="M422,-28L326,-79L433,94Z" fill="#6bafeb" stroke="#6bafeb" stroke-width="1.51"/><path d="M349,-201L326,-79L422,-28Z" fill="#7cb8ed" stroke="#7cb8ed" stroke-width="1.51"/><path d="M741,1241L1057,1478L1088,1347Z" fill="#8a31d2" stroke="#8a31d2" stroke-width="1.51"/><path d="M487,1039L610,1314L741,1241Z" fill="#8157d8" stroke="#8157d8" stroke-width="1.51"/><path d="M375,1289L610,1314L487,1039Z" fill="#7f62dc" stroke="#7f62dc" stroke-width="1.51"/><path d="M119,585L227,927L409,597Z" fill="#7e77d9" stroke="#7e77d9" stroke-width="1.51"/><path d="M145,548L119,585L409,597Z" fill="#7a85de" stroke="#7a85de" stroke-width="1.51"/><path d="M-81,542L119,585L145,548Z" fill="#8e90e1" stroke="#8e90e1" stroke-width="1.51"/><path d="M545,-202L349,-201L422,-28Z" fill="#88b6ed" stroke="#88b6ed" stroke-width="1.51"/><path d="M1070,-305L719,-404L847,-109Z" fill="#af9de5" stroke="#af9de5" stroke-width="1.51"/><path d="M1826,-162L1597,-330L1553,-36Z" fill="#ae85e6" stroke="#ae85e6" stroke-width="1.51"/><path d="M1070,-305L1537,-396L719,-404Z" fill="#c293e3" stroke="#c293e3" stroke-width="1.51"/><path d="M2000,496L2040,305L1786,146Z" fill="#815ddc" stroke="#815ddc" stroke-width="1.51"/><path d="M1798,-13L1826,-162L1553,-36Z" fill="#9f7de5" stroke="#9f7de5" stroke-width="1.51"/><path d="M610,1314L1057,1478L741,1241Z" fill="#8744d6" stroke="#8744d6" stroke-width="1.51"/><path d="M1088,1347L1057,1478L1384,1302Z" fill="#8c1acf" stroke="#8c1acf" stroke-width="1.51"/><path d="M1942,-253L1826,-162L1798,-13Z" fill="#ab82e8" stroke="#ab82e8" stroke-width="1.51"/><path d="M1464,1435L1699,1270L1384,1302Z" fill="#9014d4" stroke="#9014d4" stroke-width="1.51"/><path d="M1384,1302L1699,1270L1451,852Z" fill="#8e18d1" stroke="#8e18d1" stroke-width="1.51"/><path d="M1942,-253L1537,-396L1597,-330Z" fill="#c38fea" stroke="#c38fea" stroke-width="1.51"/><path d="M1597,-330L1537,-396L1180,-219Z" fill="#bf8fe6" stroke="#bf8fe6" stroke-width="1.51"/><path d="M719,-404L349,-201L545,-202Z" fill="#a1b8ed" stroke="#a1b8ed" stroke-width="1.51"/><path d="M326,-79L69,116L433,94Z" fill="#6bb2ec" stroke="#6bb2ec" stroke-width="1.51"/><path d="M1057,1478L1464,1435L1384,1302Z" fill="#8d18d1" stroke="#8d18d1" stroke-width="1.51"/><path d="M1950,1160L1988,1031L1670,869Z" fill="#8f15d3" stroke="#8f15d3" stroke-width="1.51"/><path d="M1464,1435L1707,1333L1699,1270Z" fill="#9111d5" stroke="#9111d5" stroke-width="1.51"/><path d="M610,1314L415,1502L1057,1478Z" fill="#854fd8" stroke="#854fd8" stroke-width="1.51"/><path d="M215,1222L375,1289L487,1039Z" fill="#7a6dde" stroke="#7a6dde" stroke-width="1.51"/><path d="M1950,1160L1670,869L1699,1270Z" fill="#9014d4" stroke="#9014d4" stroke-width="1.51"/><path d="M2000,496L1988,1031L2040,305Z" fill="#8936d3" stroke="#8936d3" stroke-width="1.51"/><path d="M92,-154L69,116L326,-79Z" fill="#8abff0" stroke="#8abff0" stroke-width="1.51"/><path d="M375,1289L415,1502L610,1314Z" fill="#7f64de" stroke="#7f64de" stroke-width="1.51"/><path d="M215,1222L341,1307L375,1289Z" fill="#8070e0" stroke="#8070e0" stroke-width="1.51"/><path d="M215,1222L487,1039L227,927Z" fill="#7d70dd" stroke="#7d70dd" stroke-width="1.51"/><path d="M1707,1333L1950,1160L1699,1270Z" fill="#920fd6" stroke="#920fd6" stroke-width="1.51"/><path d="M-93,915L215,1222L227,927Z" fill="#947ae0" stroke="#947ae0" stroke-width="1.51"/><path d="M1826,-162L1942,-253L1597,-330Z" fill="#ba89e9" stroke="#ba89e9" stroke-width="1.51"/><path d="M2040,305L1942,-253L1798,-13Z" fill="#9477e4" stroke="#9477e4" stroke-width="1.51"/><path d="M119,585L-37,794L227,927Z" fill="#927bdc" stroke="#927bdc" stroke-width="1.51"/><path d="M-81,542L-37,794L119,585Z" fill="#9a8be0" stroke="#9a8be0" stroke-width="1.51"/><path d="M69,116L-81,542L145,548Z" fill="#88a0e6" stroke="#88a0e6" stroke-width="1.51"/><path d="M69,116L-377,259L-81,542Z" fill="#98b4ec" stroke="#98b4ec" stroke-width="1.51"/><path d="M349,-201L92,-154L326,-79Z" fill="#8fc2f0" stroke="#8fc2f0" stroke-width="1.51"/><path d="M10,-236L92,-154L349,-201Z" fill="#a5cdf3" stroke="#a5cdf3" stroke-width="1.51"/><path d="M-33,1511L415,1502L341,1307Z" fill="#8973e2" stroke="#8973e2" stroke-width="1.51"/><path d="M341,1307L415,1502L375,1289Z" fill="#7c6ce0" stroke="#7c6ce0" stroke-width="1.51"/><path d="M-353,607L-93,915L-37,794Z" fill="#b089e0" stroke="#b089e0" stroke-width="1.51"/><path d="M-37,794L-93,915L227,927Z" fill="#9c7fdf" stroke="#9c7fdf" stroke-width="1.51"/><path d="M215,1222L-33,1511L341,1307Z" fill="#9276e4" stroke="#9276e4" stroke-width="1.51"/><path d="M92,-154L-245,29L69,116Z" fill="#9dc8f2" stroke="#9dc8f2" stroke-width="1.51"/><path d="M-160,-390L10,-236L349,-201Z" fill="#bcd8f6" stroke="#bcd8f6" stroke-width="1.51"/><path d="M1707,1333L2016,1466L1950,1160Z" fill="#930cd8" stroke="#930cd8" stroke-width="1.51"/><path d="M1950,1160L2016,1466L1988,1031Z" fill="#920fd6" stroke="#920fd6" stroke-width="1.51"/><path d="M1988,1031L2016,1466L2040,305Z" fill="#8e17d2" stroke="#8e17d2" stroke-width="1.51"/><path d="M1464,1435L2016,1466L1707,1333Z" fill="#920fd7" stroke="#920fd7" stroke-width="1.51"/><path d="M1057,1478L2016,1466L1464,1435Z" fill="#9014d4" stroke="#9014d4" stroke-width="1.51"/><path d="M415,1502L2016,1466L1057,1478Z" fill="#8c1acf" stroke="#8c1acf" stroke-width="1.51"/><path d="M-93,915L-22,1294L215,1222Z" fill="#a07ee4" stroke="#a07ee4" stroke-width="1.51"/><path d="M10,-236L-245,29L92,-154Z" fill="#b1d3f5" stroke="#b1d3f5" stroke-width="1.51"/><path d="M-81,542L-353,607L-37,794Z" fill="#ab93e2" stroke="#ab93e2" stroke-width="1.51"/><path d="M-93,915L-327,1003L-22,1294Z" fill="#b388e5" stroke="#b388e5" stroke-width="1.51"/><path d="M-365,510L-353,607L-81,542Z" fill="#b4a2e7" stroke="#b4a2e7" stroke-width="1.51"/><path d="M-377,259L-365,510L-81,542Z" fill="#b0afea" stroke="#b0afea" stroke-width="1.51"/><path d="M-245,29L-377,259L69,116Z" fill="#9ac7f1" stroke="#9ac7f1" stroke-width="1.51"/><path d="M-339,1375L-327,1003L-353,607Z" fill="#c793e8" stroke="#c793e8" stroke-width="1.51"/><path d="M-353,607L-327,1003L-93,915Z" fill="#bc8fe3" stroke="#bc8fe3" stroke-width="1.51"/><path d="M-339,1375L-33,1511L-22,1294Z" fill="#b587e9" stroke="#b587e9" stroke-width="1.51"/><path d="M-22,1294L-33,1511L215,1222Z" fill="#a07de6" stroke="#a07de6" stroke-width="1.51"/><path d="M-245,29L-160,-390L-377,259Z" fill="#bdd9f6" stroke="#bdd9f6" stroke-width="1.51"/><path d="M10,-236L-160,-390L-245,29Z" fill="#c7def8" stroke="#c7def8" stroke-width="1.51"/><path d="M719,-404L-160,-390L349,-201Z" fill="#a8cef3" stroke="#a8cef3" stroke-width="1.51"/><path d="M-327,1003L-326,1282L-22,1294Z" fill="#bd8ce8" stroke="#bd8ce8" stroke-width="1.51"/><path d="M-339,1375L-326,1282L-327,1003Z" fill="#c992eb" stroke="#c992eb" stroke-width="1.51"/><path d="M-365,510L-339,1375L-353,607Z" fill="#c594e4" stroke="#c594e4" stroke-width="1.51"/><path d="M-326,1282L-339,1375L-22,1294Z" fill="#c08ceb" stroke="#c08ceb" stroke-width="1.51"/><path d="M-377,259L-339,1375L-365,510Z" fill="#c497e3" stroke="#c497e3" stroke-width="1.51"/></svg>